<?xml version="1.0" encoding="UTF-8"?>
<svg width="173px" height="19px" viewBox="0 0 173 19" version="1.1" xmlns="http://www.w3.org/2000/svg" xmlns:xlink="http://www.w3.org/1999/xlink">
    <!-- Generator: sketchtool 49 (51002) - http://www.bohemiancoding.com/sketch -->
    <title>60634A71-974D-4BCD-8641-E86557C17005@3x</title>
    <desc>Created with sketchtool.</desc>
    <defs></defs>
    <g id="Main" stroke="none" stroke-width="1" fill="none" fill-rule="evenodd">
        <g id="Header" fill="#FFFFFF">
            <g id="Logotype">
                <g>
                    <g id="Group-3" transform="translate(32.000000, 0.000000)">
                        <path d="M7.41176471,7.84766087 C4.52941176,7.1867913 3.87058824,6.77374783 3.87058824,5.4520087 C3.87058824,3.79983478 4.94117647,3.13896522 6.67058824,3.13896522 C8.31764706,3.13896522 9.71764706,3.79983478 10.7058824,4.62592174 L11.0352941,4.95635652 L12.7647059,2.23026957 L12.5176471,1.98244348 C11.1176471,0.825921739 9.05882353,-0.000165217391 6.67058824,-0.000165217391 C3.12941176,-0.000165217391 0.658823529,2.14766087 0.658823529,5.4520087 C0.658823529,8.26070435 2.30588235,9.99548696 6.58823529,10.9041826 C9.47058824,11.5650522 10.2941176,12.143313 10.2941176,13.3824435 C10.2941176,14.9520087 9.05882353,15.7780957 7.08235294,15.8607043 C5.35294118,15.8607043 3.45882353,15.1172261 2.38823529,13.9607043 L2.05882353,13.6302696 L0.247058824,16.3563565 L0.494117647,16.6041826 C2.14117647,18.0911391 4.44705882,18.9172261 7,18.9172261 C10.8705882,18.9172261 13.5058824,16.6041826 13.5058824,13.2172261 C13.5058824,10.4085304 11.6117647,8.67374783 7.41176471,7.84766087" id="Fill-1"></path>
                    </g>
                    <polygon id="Fill-4" points="69.4577114 7.16742081 64.8059701 0 61 0 67.8507463 10.5067873 67.8507463 18 68.2736318 18 71.1492537 18 71.1492537 10.4253394 78 0 74.1094527 0"></polygon>
                    <g id="Group-8">
                        <polygon id="Fill-6" points="8.41896667 0.082526087 8.17610952 0.082526087 -8.0952381e-05 18.6694826 3.39991905 18.6694826 8.41896667 6.85643913 13.4380143 18.6694826 13.7618238 18.6694826 16.8380143 18.6694826 8.74277619 0.082526087"></polygon>
                    </g>
                    <polygon id="Fill-9" points="169.109453 0 164.457711 7.16742081 159.890547 0 156 0 162.850746 10.5067873 162.850746 18 163.273632 18 166.149254 18 166.149254 10.4253394 173 0"></polygon>
                    <g id="Group-13" transform="translate(94.000000, 0.000000)">
                        <polygon id="Fill-11" points="11.4168333 11.4827739 1.25016667 0.082773913 0.916 0.082773913 0.499333333 0.082773913 0.499333333 18.6697304 3.75016667 18.6697304 3.75016667 7.60016522 14.0001667 19.0001652 14.1668333 19.0001652 14.2493333 19.0001652 14.666 19.0001652 14.666 0.413208696 11.4168333 0.413208696"></polygon>
                    </g>
                    <g id="Group-16" transform="translate(125.000000, 0.000000)">
                        <path d="M14.36534,13.8783435 C13.25949,15.1174739 11.81534,15.9435609 9.85949,15.9435609 C6.29034,15.9435609 3.90949,13.3000826 3.82534,9.5826913 C3.82534,5.7826913 6.20449,3.22182174 9.85949,3.13921304 C11.72949,3.13921304 13.17534,3.9653 14.19534,5.03921304 L14.53449,5.36964783 L16.65949,2.97399565 L16.40449,2.72616957 C14.70449,0.991386957 12.57949,0.0826913043 9.85949,0.0826913043 C4.42034,0.0826913043 0.50949,4.13051739 0.50949,9.5826913 C0.50949,14.9522565 4.42034,19.0000826 9.85949,19.0000826 C12.49534,19.0000826 14.79034,18.091387 16.49034,16.2739957 L16.74534,16.0261696 L14.62034,13.5479087 L14.36534,13.8783435 Z" id="Fill-14"></path>
                    </g>
                </g>
            </g>
        </g>
    </g>
</svg>