<svg xmlns="http://www.w3.org/2000/svg" id="Layer_1" data-name="Layer 1" viewBox="0 0 401.03 401.03"><defs><style>.cls-1{fill:#010101;}</style></defs><title>Artboard 2</title><path class="cls-1" d="M350.87,304.61a202.57,202.57,0,0,1-20.06,36.05Q315,363.21,305,371.88q-15.47,14.22-33.19,14.61c-8.5,0-18.74-2.41-30.67-7.32s-23-7.29-33-7.29q-15.83,0-34,7.29c-12.11,4.91-21.87,7.46-29.33,7.72q-17,.72-34-15-10.81-9.44-27-32.33Q66.49,315.1,55.29,282.8q-12-34.91-12-67.63,0-37.48,16.21-64.62a95.32,95.32,0,0,1,34-34.36,91.4,91.4,0,0,1,45.93-13c9,0,20.83,2.78,35.52,8.26s24,8.29,28.17,8.29c3.08,0,13.53-3.26,31.24-9.76q25.13-9,42.47-7.54,47.06,3.8,70.63,37.19-42.1,25.5-41.67,71.37.38,35.7,25.85,59.32a85.07,85.07,0,0,0,25.83,16.95c-2.07,6-4.26,11.76-6.58,17.29Zm-72-283.19q0,28-20.4,52.18c-16.39,19.17-36.21,30.24-57.71,28.49a56.68,56.68,0,0,1-.44-7.06c0-17.91,7.8-37.07,21.64-52.74A83.15,83.15,0,0,1,248.35,22.5q16-7.79,30.16-8.55a67,67,0,0,1,.39,7.47Z"/></svg>
