<svg id="Layer_1" data-name="Layer 1" xmlns="http://www.w3.org/2000/svg" viewBox="0 0 400 400"><defs><style>.cls-1{fill:#010101;}</style></defs><title>Artboard 1</title><g id="ubuntu"><path class="cls-1" d="M139.47,195.36a92.23,92.23,0,0,1,35.36-72.67L141.91,70a154.56,154.56,0,0,0-58.15,81.89,55.53,55.53,0,0,1,1.68,92.3,154.45,154.45,0,0,0,57.82,77.49l30.61-54.46A92.07,92.07,0,0,1,139.47,195.36Z"/><path class="cls-1" d="M93.7,198.58a39.94,39.94,0,1,1-39.94-39.91A39.95,39.95,0,0,1,93.7,198.58Z"/><path class="cls-1" d="M318,295.14a55.06,55.06,0,0,1,25.71,6.31,153.72,153.72,0,0,0,42-95.37l-62-1.2a92.4,92.4,0,0,1-129.08,74.95l-30.83,53.95a154.48,154.48,0,0,0,98.9,12.69A55.52,55.52,0,0,1,318,295.14Z"/><path class="cls-1" d="M357.9,350.65A39.93,39.93,0,1,1,318,310.72,39.91,39.91,0,0,1,357.9,350.65Z"/><path class="cls-1" d="M348,93.93a55.51,55.51,0,0,1-87.56-45.31c0-1.63.08-3.21.2-4.79a154.69,154.69,0,0,0-97.45,13.38l30.65,54a92.35,92.35,0,0,1,129.7,73.42l62-1.89A153.58,153.58,0,0,0,348,93.93Z"/><path class="cls-1" d="M355.82,48.62A39.92,39.92,0,1,1,315.91,8.68,39.9,39.9,0,0,1,355.82,48.62Z"/></g></svg>
